/* XPM */
static char * consumable_xpm[] = {
"64 64 17 1",
" 	c #FFFFFF",
".	c #F0F0F0",
"+	c #E1E1E1",
"@	c #D8D8D8",
"#	c #F8F8F8",
"$	c #A5A5A5",
"%	c #CFCFCF",
"&	c #BCBCBC",
"*	c #787878",
"=	c #B1B1B1",
"-	c #E9E9E9",
";	c #C6C6C6",
">	c #898989",
",	c #474747",
"'	c #000000",
")	c #989898",
"!	c #636363",
"                                                                ",
"                                                                ",
"                                                                ",
"                                                                ",
"                                                                ",
"                                                                ",
"                                                                ",
"                                                                ",
"                                                                ",
"                                                                ",
"                                                                ",
"                                                                ",
"                                             ..                 ",
"                 +@#                        +$%                 ",
"                 &*=+                     -;>*@                 ",
"                 ;,'>;-                  +),'=#                 ",
"                 -)'',)@#              +&>'''&                  ",
"                  &''''*=+           #@>'''''&                  ",
"                  &''''''>%.        +=*'''''!%                  ",
"                  %!''''''!$+     .%>'''''''$.                  ",
"                  .$''''''''>;-  +$!''''''''&                   ",
"                   &''''''''',)%%>''''''''''&                   ",
"                   &'''''''''''!!''''''''''!%                   ",
"                   %!''''''''''''''''''''''$.                   ",
"                   .$''''''''''''''''''''''&                    ",
"                    &''''''''''''''''''''''&                    ",
"                    &'''''''''''''''''''''!%                    ",
"                    @*''''''''''''''''''''$.                    ",
"                    #=''''''''''''''''''''&                     ",
"                    #=''''''''''''''''''''$.                    ",
"                   .;*''''''''''''''''''''!=-                   ",
"                  -=!'''''''''''''''''''''',)+                  ",
"                 +),'''''''''''''''''''''''''>+                 ",
"                +>''''''''''''''''''''''''''''>@#               ",
"               +>''''''''''''''''''''''''''''''*&-              ",
"             #@>'''''''''''''''''''''''''''''''',)+             ",
"            .;*'''''''''''''''''''''''''''''''''''>+            ",
"           +$!'''''''''''''''''''''''''''''''''''''>+           ",
"          +>''''''''''''''''''''''''''''''''''''''''>%.         ",
"         +>''''''''''''''''''''''''''''''''''''''''''!=-        ",
"       #-&*,''''''''''''''''''''''''''''''''''',*>)=&&;-        ",
"       #-+@;&&&&&&&&&&&&=*''''''''''''>&&&&&&&&;@+-#            ",
"                        #%*'''''''''',;                         ",
"                         #='''''''''')-                         ",
"                          ;,'''''''''&                          ",
"                          -)''''''''*@                          ",
"                           &''''''''=#                          ",
"                           @*'''''',;                           ",
"                           #='''''')-                           ",
"                            ;,'''''&                            ",
"                            -)''''*@                            ",
"                             &''''=#                            ",
"                             +>'''&                             ",
"                              &''>+                             ",
"                              %!'&                              ",
"                              .$!%                              ",
"                               &$.                              ",
"                               ++                               ",
"                                                                ",
"                                                                ",
"                                                                ",
"                                                                ",
"                                                                ",
"                                                                "};
