/* XPM */
static char * zexit_xpm[] = {
"64 64 4 1",
" 	c #FCD8A8",
".	c #C84C0C",
"+	c #2038EC",
"@	c #000000",
"                                                                ",
"                                                                ",
"                                                                ",
"                                                                ",
"                                                                ",
"                                                                ",
"                                                                ",
"                                                                ",
"                                                                ",
"                                                                ",
"                                                                ",
"                                                                ",
"                                                                ",
"                                                                ",
"                                                                ",
"                                                                ",
"          .   ++    .     @@@@    @@@@@@       @                ",
"          ...++++   ..@@@@@@@@@  @@@@@@@@     @@                ",
"          ....      ....@@@@@.@@@@@@@@@@@@@  @@@                ",
"          @...      .@....@@@.@@@@@@@@@@@@@@@@@@@               ",
"          +++...    @@.........@@@@@@@...@@@@@@@@               ",
"         +++++...   @...........@@@@.....@@@@@.@@               ",
"           ++@..... @.@......@...@@.@......@@.@@@               ",
"             @@.....@.@......@......@...@..@..@@@               ",
"              @@......@.....@@@....@@@..@@....@@@               ",
"               @..@..@......@ @....@ @..@@...@@@@               ",
"               @@.@...@.....@ @....@ @..@....@@@@               ",
"                @@@@..@......@......@...@....@@@.               ",
"                @@@@@.@.................@.@...@@.               ",
"              +++++@@@@.....@@.@@@@.....@.@.@.@@.               ",
"             ++++++@@@....@@@@.@@@@@@.@...@.@.@@.               ",
"               +++@@@@....@@@@@@@@@@@@@.@.@..@@@.               ",
"                   @@..@.@@@@@@@@@@@@@@@@.@..@@.@      .@       ",
"                   @@..@.@@@@@@@@@@@@@@@@.@..@@.@     .@@       ",
"                   @@..@.@@@@@@@@@@@@@@@@.@@.@@.@   ...@        ",
"                   .@..@.@@@@@@@@@@@@@@@@.@@.@@.@  .@.@++       ",
"                   .@..@.@@@@@@@@@@@@@@@@.@@..@@@ .@.@++        ",
"                   .@..@.@@@@@@@@@@@@@@@@.@@...@@..@@@          ",
"                   .@..@.@@@@@@@@@@@@@@@@.@@.@.@..@.@           ",
"                   .@..@.@@@@@@@@@@@@@@@@.@@.@.@.@@.@           ",
"                  ..@.@@.@@@@@@@@@@@@@@@@.@..@.@.@.@            ",
"                  .@@.@..@@@@@@@@@@@@@@@@.@.@@.@@@@@            ",
"                  .@..@..@@@@@@@@@@@@@@@@.@.@..@@.@             ",
"                  .@..@..@@@@@@@@@@@@@@@@...@.@@@.@             ",
"                  .@.....@@@@@@@@@@@@@@@@......@@@@             ",
"                 ..@.@...@@@@@@@@@@@@@@@@.@...@@.@@@            ",
"                 ....@...@@@@@@@@@@@@@@@@..@@@@@.@@@            ",
"                 ..  .. .@@@@@@@@@@@@@@@@.....@@.@.@@           ",
"                                                                ",
"                                                                ",
"                                                                ",
"                                                                ",
"                                                                ",
"                                                                ",
"                                                                ",
"                                                                ",
"                                                                ",
"                                                                ",
"                                                                ",
"                                                                ",
"                                                                ",
"                                                                ",
"                                                                ",
"                                                                "};
