/* XPM */
static char * zwall_xpm[] = {
"64 64 3 1",
" 	c #C84C0C",
".	c #000000",
"+	c #FCD8A8",
"   .+..+  ..+.     .+..+  ..+.     .+..+  ..+.     .+..+  ..+.  ",
"    ..+     ...+    ..+     ...+    ..+     ...+    ..+     ...+",
"    ..+     .. .    ..+     .. .    ..+     .. .    ..+     .. .",
"+   ..+      . .+   ..+      . .+   ..+      . .+   ..+      . .",
"+   .+       . .+   .+       . .+   .+       . .+   .+       . .",
"    .+         .    .+         .    .+         .    .+         .",
"    .+     ++..+    .+     ++..+    .+     ++..+    .+     ++..+",
"    .+    +   .+    .+    +   .+    .+    +   .+    .+    +   .+",
"   ..+    +    .   ..+    +    .   ..+    +    .   ..+    +    .",
"   ..+    +    .   ..+    +    .   ..+    +    .   ..+    +    .",
"+ ...+.  .+   ..+ ...+.  .+   ..+ ...+.  .+   ..+ ...+.  .+   ..",
"+ .+++.. .+   .++ .+++.. .+   .++ .+++.. .+   .++ .+++.. .+   .+",
" .+     ..+   .+ .+     ..+   .+ .+     ..+   .+ .+     ..+   .+",
" .+    ...+   .+ .+    ...+   .+ .+    ...+   .+ .+    ...+   .+",
" +      ...  ... +      ...  ... +      ...  ... +      ...  ...",
".+ +  +.+..++..+.+ +  +.+..++..+.+ +  +.+..++..+.+ +  +.+..++..+",
"   .+..+  ..+.     .+..+  ..+.     .+..+  ..+.     .+..+  ..+.  ",
"    ..+     ...+    ..+     ...+    ..+     ...+    ..+     ...+",
"    ..+     .. .    ..+     .. .    ..+     .. .    ..+     .. .",
"+   ..+      . .+   ..+      . .+   ..+      . .+   ..+      . .",
"+   .+       . .+   .+       . .+   .+       . .+   .+       . .",
"    .+         .    .+         .    .+         .    .+         .",
"    .+     ++..+    .+     ++..+    .+     ++..+    .+     ++..+",
"    .+    +   .+    .+    +   .+    .+    +   .+    .+    +   .+",
"   ..+    +    .   ..+    +    .   ..+    +    .   ..+    +    .",
"   ..+    +    .   ..+    +    .   ..+    +    .   ..+    +    .",
"+ ...+.  .+   ..+ ...+.  .+   ..+ ...+.  .+   ..+ ...+.  .+   ..",
"+ .+++.. .+   .++ .+++.. .+   .++ .+++.. .+   .++ .+++.. .+   .+",
" .+     ..+   .+ .+     ..+   .+ .+     ..+   .+ .+     ..+   .+",
" .+    ...+   .+ .+    ...+   .+ .+    ...+   .+ .+    ...+   .+",
" +      ...  ... +      ...  ... +      ...  ... +      ...  ...",
".+ +  +.+..++..+.+ +  +.+..++..+.+ +  +.+..++..+.+ +  +.+..++..+",
"   .+..+  ..+.     .+..+  ..+.     .+..+  ..+.     .+..+  ..+.  ",
"    ..+     ...+    ..+     ...+    ..+     ...+    ..+     ...+",
"    ..+     .. .    ..+     .. .    ..+     .. .    ..+     .. .",
"+   ..+      . .+   ..+      . .+   ..+      . .+   ..+      . .",
"+   .+       . .+   .+       . .+   .+       . .+   .+       . .",
"    .+         .    .+         .    .+         .    .+         .",
"    .+     ++..+    .+     ++..+    .+     ++..+    .+     ++..+",
"    .+    +   .+    .+    +   .+    .+    +   .+    .+    +   .+",
"   ..+    +    .   ..+    +    .   ..+    +    .   ..+    +    .",
"   ..+    +    .   ..+    +    .   ..+    +    .   ..+    +    .",
"+ ...+.  .+   ..+ ...+.  .+   ..+ ...+.  .+   ..+ ...+.  .+   ..",
"+ .+++.. .+   .++ .+++.. .+   .++ .+++.. .+   .++ .+++.. .+   .+",
" .+     ..+   .+ .+     ..+   .+ .+     ..+   .+ .+     ..+   .+",
" .+    ...+   .+ .+    ...+   .+ .+    ...+   .+ .+    ...+   .+",
" +      ...  ... +      ...  ... +      ...  ... +      ...  ...",
".+ +  +.+..++..+.+ +  +.+..++..+.+ +  +.+..++..+.+ +  +.+..++..+",
"   .+..+  ..+.     .+..+  ..+.     .+..+  ..+.     .+..+  ..+.  ",
"    ..+     ...+    ..+     ...+    ..+     ...+    ..+     ...+",
"    ..+     .. .    ..+     .. .    ..+     .. .    ..+     .. .",
"+   ..+      . .+   ..+      . .+   ..+      . .+   ..+      . .",
"+   .+       . .+   .+       . .+   .+       . .+   .+       . .",
"    .+         .    .+         .    .+         .    .+         .",
"    .+     ++..+    .+     ++..+    .+     ++..+    .+     ++..+",
"    .+    +   .+    .+    +   .+    .+    +   .+    .+    +   .+",
"   ..+    +    .   ..+    +    .   ..+    +    .   ..+    +    .",
"   ..+    +    .   ..+    +    .   ..+    +    .   ..+    +    .",
"+ ...+.  .+   ..+ ...+.  .+   ..+ ...+.  .+   ..+ ...+.  .+   ..",
"+ .+++.. .+   .++ .+++.. .+   .++ .+++.. .+   .++ .+++.. .+   .+",
" .+     ..+   .+ .+     ..+   .+ .+     ..+   .+ .+     ..+   .+",
" .+    ...+   .+ .+    ...+   .+ .+    ...+   .+ .+    ...+   .+",
" +      ...  ... +      ...  ... +      ...  ... +      ...  ...",
".+ +  +.+..++..+.+ +  +.+..++..+.+ +  +.+..++..+.+ +  +.+..++..+"};
